<svg width="16" height="16" viewBox="0 0 16 16" fill="none" xmlns="http://www.w3.org/2000/svg">
<path fill-rule="evenodd" clip-rule="evenodd" d="M2.71254 0.764809C2.29048 0.34272 1.60609 0.34272 1.18404 0.764809C0.761917 1.18689 0.761917 1.87123 1.18404 2.29332L6.83925 7.94852L1.18373 13.604C0.761673 14.0261 0.761673 14.7104 1.18373 15.1325C1.60579 15.5546 2.29018 15.5546 2.71223 15.1325L8.40175 9.44297L14.0913 15.1325C14.5134 15.5546 15.1978 15.5546 15.6199 15.1325C16.0419 14.7104 16.0419 14.0261 15.6199 13.604L9.96504 7.94921L15.6204 2.29379C16.0426 1.8717 16.0426 1.18737 15.6204 0.765278C15.1984 0.343189 14.5141 0.343189 14.0919 0.765278L8.40248 6.45475L2.71254 0.764809Z" fill="#CCCCCC"/>
</svg>
