<svg width="48" height="49" viewBox="0 0 48 49" fill="none" xmlns="http://www.w3.org/2000/svg">
<path d="M47.5 24.4989C47.5 37.5132 36.9775 48.0612 24 48.0612C11.0225 48.0612 0.5 37.5132 0.5 24.4989C0.5 11.4845 11.0225 0.936523 24 0.936523C36.9775 0.936523 47.5 11.4845 47.5 24.4989Z" stroke="white"/>
<path d="M29.5 17.4814H18.5C18.1022 17.4814 17.7206 17.6399 17.4393 17.9219C17.158 18.204 17 18.5865 17 18.9853V30.0139C17 30.4128 17.158 30.7953 17.4393 31.0773C17.7206 31.3594 18.1022 31.5178 18.5 31.5178H22.7891V26.7458H20.8203V24.4996H22.7891V22.7877C22.7891 20.8405 23.9453 19.7649 25.7163 19.7649C26.5644 19.7649 27.4513 19.9165 27.4513 19.9165V21.8277H26.4741C25.5113 21.8277 25.2109 22.4268 25.2109 23.0412V24.4996H27.3603L27.0166 26.7458H25.2109V31.5178H29.5C29.8978 31.5178 30.2794 31.3594 30.5607 31.0773C30.842 30.7953 31 30.4128 31 30.0139V18.9853C31 18.5865 30.842 18.204 30.5607 17.9219C30.2794 17.6399 29.8978 17.4814 29.5 17.4814Z" fill="white"/>
</svg>
