<svg width="48" height="49" viewBox="0 0 48 49" fill="none" xmlns="http://www.w3.org/2000/svg">
<path d="M47.5 24.4989C47.5 37.5132 36.9775 48.0612 24 48.0612C11.0225 48.0612 0.5 37.5132 0.5 24.4989C0.5 11.4845 11.0225 0.936523 24 0.936523C36.9775 0.936523 47.5 11.4845 47.5 24.4989Z" stroke="white"/>
<g clip-path="url(#clip0_112_40)">
<path fill-rule="evenodd" clip-rule="evenodd" d="M20.3334 17.667H27.6667C29.6918 17.667 31.3334 19.3086 31.3334 21.3337V28.667C31.3334 30.692 29.6918 32.3337 27.6667 32.3337H20.3334C18.3084 32.3337 16.6667 30.692 16.6667 28.667V21.3337C16.6667 19.3086 18.3084 17.667 20.3334 17.667ZM27.5335 20.9672C27.5335 20.691 27.7573 20.4672 28.0335 20.4672H28.0393C28.3154 20.4672 28.5393 20.691 28.5393 20.9672C28.5393 21.2433 28.3154 21.4672 28.0393 21.4672H28.0335C27.7573 21.4672 27.5335 21.2433 27.5335 20.9672ZM24.389 22.5616C23.8828 22.4865 23.3657 22.573 22.9114 22.8087C22.4571 23.0444 22.0887 23.4174 21.8586 23.8746C21.6285 24.3317 21.5484 24.8498 21.6297 25.3552C21.711 25.8605 21.9496 26.3273 22.3115 26.6892C22.6734 27.0511 23.1402 27.2897 23.6455 27.371C24.1508 27.4523 24.6689 27.3722 25.1261 27.1421C25.5833 26.912 25.9563 26.5436 26.192 26.0893C26.4277 25.635 26.5142 25.1179 26.4391 24.6116C26.3625 24.0952 26.1219 23.6171 25.7527 23.2479C25.3836 22.8788 24.9055 22.6381 24.389 22.5616ZM22.4508 21.9211C23.0918 21.5885 23.8214 21.4664 24.5357 21.5724C25.2644 21.6804 25.939 22.02 26.4598 22.5408C26.9807 23.0617 27.3203 23.7363 27.4283 24.465C27.5342 25.1793 27.4122 25.9089 27.0796 26.5499C26.747 27.1909 26.2208 27.7107 25.5757 28.0353C24.9307 28.36 24.1996 28.473 23.4867 28.3583C22.7737 28.2436 22.115 27.9069 21.6044 27.3963C21.0937 26.8857 20.7571 26.227 20.6424 25.514C20.5277 24.801 20.6407 24.07 20.9653 23.425C21.29 22.7799 21.8098 22.2537 22.4508 21.9211Z" fill="white"/>
</g>
<defs>
<clipPath id="clip0_112_40">
<rect width="16" height="16" fill="white" transform="translate(16 17)"/>
</clipPath>
</defs>
</svg>
