<svg width="176" height="61" viewBox="0 0 176 61" fill="none" xmlns="http://www.w3.org/2000/svg">
<g clip-path="url(#clip0_109_3376)">
<path d="M88.3065 23.6185H95.0438V39.8456H97.6982V23.6185H104.718V20.8816H88.3065V23.6185Z" fill="white"/>
<path d="M122.766 38.3987L117.827 30.0498L117.508 29.5098C117.523 29.4992 117.542 29.4885 117.558 29.4752C117.566 29.4699 117.574 29.4646 117.582 29.4593C117.63 29.4274 117.678 29.3955 117.723 29.3635C117.726 29.3609 117.729 29.3609 117.731 29.3582C117.782 29.3236 117.833 29.2891 117.881 29.2518C117.987 29.1747 118.088 29.0976 118.19 29.0151C118.216 28.9938 118.246 28.9726 118.272 28.9486C118.312 28.9167 118.35 28.8848 118.387 28.8529C118.44 28.8077 118.496 28.7624 118.547 28.7146C118.552 28.7092 118.558 28.7066 118.563 28.7013C118.603 28.6667 118.645 28.6295 118.685 28.5896C118.805 28.4778 118.925 28.3661 119.04 28.2491C119.418 27.8634 120.034 27.249 120.412 26.3474C121.457 23.8552 119.464 20.9029 116.759 20.8258C116.74 20.8258 116.724 20.8258 116.711 20.8258H106.498V39.8456H109.153V30.9886H112.572C112.636 30.9886 112.697 30.9886 112.761 30.986C112.793 30.986 112.825 30.9833 112.857 30.9833C112.91 30.9807 112.961 30.9807 113.012 30.978C113.025 30.978 113.038 30.978 113.049 30.9753C113.121 30.9727 113.193 30.9674 113.262 30.962C113.265 30.962 113.267 30.962 113.27 30.962C113.347 30.9567 113.425 30.9487 113.502 30.9408C113.566 30.9354 113.627 30.9275 113.691 30.9195C113.718 30.9168 113.742 30.9142 113.768 30.9088C113.827 30.9009 113.886 30.8929 113.947 30.8823C113.971 30.8796 113.995 30.8743 114.019 30.8716C114.064 30.8663 114.11 30.8583 114.155 30.8477C114.309 30.8184 114.563 30.7652 114.717 30.728C114.757 30.7173 114.797 30.7094 114.837 30.6987C114.853 30.6961 114.869 30.6908 114.885 30.6854C114.933 30.6748 114.981 30.6588 115.026 30.6455C115.037 30.6429 115.048 30.6402 115.058 30.6349L115.202 30.8796L120.503 39.8429H121.979H123.61H125.484L131.318 28.9726L129.575 25.6931L122.766 38.3987ZM117.18 26.3048C116.593 26.9033 115.916 27.3714 115.181 27.6985C114.371 28.0603 113.489 28.2491 112.577 28.2491H109.158V23.56H116.015C117.433 23.56 118.19 25.2675 117.204 26.2809C117.193 26.2889 117.185 26.2969 117.18 26.3048Z" fill="white"/>
<path d="M132.208 20.8098V20.8125L130.457 24.076L132.208 27.3395L138.921 39.8456H142.428L133.961 24.076L132.208 20.8098Z" fill="white"/>
<path d="M175.307 31.7254C174.398 30.0923 172.693 28.9912 170.734 28.9912H165.46C165.308 28.9779 165.156 28.9699 165.001 28.9699C164.911 28.9699 164.823 28.9725 164.735 28.9779C163.416 28.8422 162.384 27.6932 162.384 26.2995C162.384 24.8154 163.554 23.6078 164.996 23.6078H175.598V20.8683C175.552 20.8683 175.507 20.8683 175.464 20.871H164.996C163.037 20.871 161.332 21.9721 160.423 23.6078C159.983 24.4005 159.73 25.3207 159.73 26.2995C159.73 27.2783 159.98 28.1986 160.423 28.9912C160.644 29.3875 160.91 29.7545 161.22 30.0817C162.176 31.0977 163.514 31.728 164.996 31.728H170.737C172.176 31.728 173.348 32.9356 173.348 34.4197C173.348 35.9038 172.178 37.1113 170.737 37.1113H160.207C160.164 37.1113 160.122 37.106 160.082 37.106L162.408 39.8429C162.451 39.8429 162.491 39.8482 162.533 39.8482H170.737C172.695 39.8482 174.401 38.7471 175.31 37.114C175.749 36.3214 176.003 35.4011 176.003 34.4223C176 33.4382 175.747 32.518 175.307 31.7254Z" fill="white"/>
<path d="M155.871 37.0422C156.02 36.8879 156.164 36.7284 156.303 36.5661C157.699 34.9038 158.544 32.7361 158.544 30.3636C158.544 25.1266 154.426 20.8816 149.347 20.8816C144.267 20.8816 140.15 25.1266 140.15 30.3636C140.15 35.6006 144.267 39.8456 149.347 39.8456C149.366 39.8456 149.382 39.8456 149.4 39.8456H153.864H153.936H154.456H160.314L158.016 37.0449H155.871V37.0422ZM150.997 36.8906C150.469 37.0316 149.917 37.1087 149.347 37.1087C145.738 37.1087 142.802 34.0819 142.802 30.3636C142.802 26.6426 145.738 23.6185 149.347 23.6185C152.955 23.6185 155.89 26.6453 155.89 30.3636C155.89 31.9781 155.338 33.4622 154.416 34.6245C154.136 34.9782 153.824 35.3001 153.483 35.5873C153.134 35.8826 152.753 36.1405 152.348 36.356C151.921 36.5847 151.471 36.7629 150.997 36.8906Z" fill="white"/>
<path d="M13.24 34.3452C13.1547 34.5128 13.0667 34.6803 12.9788 34.8479C12.8908 35.0155 12.8002 35.1804 12.707 35.3426C12.6137 35.5075 12.5204 35.6698 12.4245 35.8293C12.3285 35.9916 12.2326 36.1485 12.134 36.3081C11.9874 36.5448 11.8381 36.7762 11.6862 37.0049C11.5343 37.2337 11.3798 37.4571 11.2199 37.6752C11.0626 37.8933 10.9027 38.1061 10.7401 38.3162C10.5776 38.5237 10.4123 38.7258 10.2471 38.9226C9.20241 40.1541 8.17637 41.0371 7.22761 41.5824C6.30817 42.1116 5.47134 42.3138 4.75711 42.2154C4.06952 42.1196 3.50187 41.7446 3.08346 41.1063C2.68103 40.4919 2.41986 39.6381 2.32925 38.5556C2.26262 37.7816 2.28661 36.9438 2.38788 36.0661C2.48648 35.207 2.65971 34.3053 2.8969 33.393C3.12876 32.4914 3.42458 31.5738 3.7737 30.6615C4.12016 29.7545 4.51992 28.8528 4.96765 27.9725C5.12755 27.6586 5.29278 27.3448 5.46601 27.0362C5.63924 26.7277 5.81513 26.4218 5.99902 26.124C6.18291 25.8234 6.37213 25.5282 6.56934 25.2356C6.76656 24.943 6.96644 24.6584 7.17431 24.3792C7.96849 23.31 8.77601 22.4296 9.5622 21.7487C10.3697 21.0492 11.1612 20.5545 11.8994 20.2858C12.6617 20.0066 13.3706 19.9693 13.9782 20.2007C14.6071 20.4428 15.1268 20.9747 15.4759 21.8365C15.6305 22.2195 15.7478 22.653 15.8224 23.1291C15.8997 23.6105 15.9343 24.1345 15.9317 24.6957C15.929 25.2622 15.8837 25.8633 15.8011 26.4937C15.7185 27.1293 15.5932 27.789 15.4333 28.4672C15.3853 28.6746 15.332 28.8821 15.2761 29.0922C15.2201 29.3023 15.1615 29.5125 15.0975 29.7252C15.0335 29.938 14.9696 30.1508 14.9003 30.3636C14.831 30.5764 14.759 30.7918 14.6818 31.0072C14.6045 31.228 14.5219 31.4488 14.4366 31.6695C14.3513 31.8903 14.2633 32.111 14.1727 32.3318C14.0821 32.5525 13.9862 32.7733 13.8902 32.9941C13.7916 33.2148 13.693 33.4329 13.5891 33.651C13.5624 33.7095 13.5331 33.768 13.5065 33.8239C13.4798 33.8824 13.4505 33.9383 13.4212 33.9968C13.3919 34.0553 13.3652 34.1112 13.3359 34.1697C13.2986 34.2308 13.2693 34.2867 13.24 34.3452ZM3.76304 27.0655C3.16607 28.2384 2.62773 29.446 2.15868 30.6562C1.6843 31.877 1.27655 33.1111 0.948749 34.3293C0.612953 35.5687 0.359773 36.7975 0.197205 37.9864C0.0319719 39.2046 -0.0346544 40.3881 0.0159816 41.4972C0.087938 43.0665 0.391754 44.3485 0.895448 45.3113C1.42579 46.3247 2.18 46.9869 3.11544 47.2503C4.10417 47.5269 5.29012 47.362 6.61998 46.7024C8.00847 46.0108 9.53554 44.79 11.1079 43.008C11.1133 43.0027 11.1186 42.9947 11.1239 42.9894C11.1292 42.984 11.1346 42.9761 11.1399 42.9707C11.1452 42.9654 11.1506 42.9574 11.1559 42.9521C11.1612 42.9468 11.1666 42.9388 11.1719 42.9335L17.0803 36.2443L17.1816 36.1299L18.181 34.9968L22.5383 30.0604L17.9731 30.6109C18.0477 30.3822 18.1197 30.1535 18.189 29.9247C18.2583 29.696 18.3249 29.4699 18.3888 29.2438C18.4528 29.0178 18.5141 28.7917 18.5727 28.5683C18.6314 28.3448 18.6847 28.1214 18.738 27.9007C18.9911 26.8394 19.175 25.8074 19.295 24.8233C19.4122 23.8552 19.4602 22.9349 19.4415 22.0758C19.4229 21.2354 19.3376 20.4561 19.1884 19.7512C19.0418 19.0623 18.8286 18.4479 18.5541 17.916C17.9704 16.7883 17.1576 16.1446 16.2035 15.9185C15.3001 15.7031 14.2687 15.8627 13.1813 16.3388C12.142 16.7936 11.044 17.5463 9.93797 18.5543C8.86928 19.5305 7.78194 20.7566 6.71592 22.2195C6.43876 22.5998 6.16692 22.9908 5.90575 23.3844C5.64457 23.7781 5.39139 24.177 5.14354 24.584C4.89836 24.9882 4.66117 25.3978 4.42931 25.8128C4.20011 26.2277 3.97625 26.6453 3.76304 27.0655Z" fill="white"/>
<path d="M65.2991 34.0686C64.8381 34.9676 64.321 35.8533 63.7507 36.7204C63.1831 37.5848 62.5621 38.4279 61.8905 39.2445C61.2242 40.0557 60.5074 40.8403 59.7478 41.5903C58.9936 42.3351 58.1941 43.0426 57.3573 43.7102C54.2605 46.1784 50.9558 47.8301 47.7204 48.7211C44.6796 49.5563 41.7481 49.7052 39.107 49.2584C36.6445 48.8408 34.4485 47.9046 32.6282 46.5295C30.9279 45.2448 29.5528 43.5719 28.58 41.5584C28.1749 40.7206 27.8525 39.8535 27.61 38.9705C27.3701 38.1061 27.2049 37.2204 27.1089 36.3214C27.013 35.441 26.9837 34.5447 27.0157 33.6431C27.0476 32.7547 27.1382 31.8584 27.2848 30.9594C27.3301 30.6881 27.3781 30.4168 27.4341 30.1482C27.4874 29.8795 27.5487 29.6082 27.6126 29.3396C27.6766 29.071 27.7459 28.8023 27.8205 28.5337C27.8951 28.2651 27.9724 27.9964 28.0577 27.7304C28.143 27.4565 28.2336 27.1825 28.3295 26.9086C28.4255 26.6346 28.5267 26.3633 28.6333 26.0894C28.7399 25.8181 28.8492 25.5441 28.9665 25.2755C29.0837 25.0042 29.2037 24.7356 29.3289 24.4643C29.3636 24.3925 29.3955 24.3207 29.4302 24.2488C29.4648 24.177 29.4995 24.1052 29.5341 24.0361C29.5688 23.9643 29.6034 23.8924 29.6407 23.8233C29.678 23.7541 29.7127 23.6823 29.7473 23.6105C29.8539 23.4004 29.9632 23.1929 30.0778 22.9828C30.1897 22.7754 30.307 22.5652 30.4269 22.3604C30.5468 22.153 30.6694 21.9455 30.7947 21.7407C30.92 21.5359 31.0505 21.3285 31.1811 21.1263C31.3783 20.8178 31.5835 20.5146 31.7968 20.2087C32.01 19.9055 32.2285 19.6023 32.4577 19.3017C32.6869 19.0012 32.9214 18.7006 33.1639 18.4054C33.4091 18.1075 33.6596 17.8123 33.9208 17.5197C35.5865 15.6366 37.4413 14.0062 39.4001 12.6604C41.4469 11.2534 43.6456 10.1336 45.8922 9.35431C48.2748 8.52979 50.7426 8.07763 53.1545 8.09359C55.7396 8.10955 58.2767 8.66278 60.566 9.87296C62.3622 10.8225 63.868 12.1045 65.0539 13.6657C66.2958 15.3015 67.17 17.2245 67.647 19.3576C68.1427 21.5652 68.2067 23.9643 67.8256 26.4511C67.4312 28.9779 66.5863 31.5605 65.2991 34.0686ZM18.8126 29.0896L23.4605 28.4034C23.3832 28.6507 23.3112 28.9007 23.2393 29.1507C23.1673 29.4008 23.1007 29.6508 23.0367 29.9008C22.9728 30.1508 22.9088 30.4035 22.8502 30.6535C22.7915 30.9062 22.7356 31.1562 22.6823 31.4089C22.4238 32.635 22.2372 33.8691 22.1279 35.0979C22.016 36.3507 21.984 37.6061 22.04 38.8508C22.096 40.1275 22.2425 41.4015 22.4877 42.6596C22.7409 43.9575 23.1007 45.2448 23.5804 46.5109C24.7024 49.4765 26.3814 52.0671 28.5454 54.1975C30.9253 56.5407 33.9101 58.3441 37.3774 59.4425C41.2204 60.6607 45.639 61.0144 50.3722 60.267C55.5797 59.4452 61.0537 57.3147 66.2772 53.6842C67.7136 52.6841 69.0835 51.6043 70.3814 50.4526C71.6952 49.285 72.9265 48.0482 74.0725 46.7502C75.2291 45.4417 76.2924 44.0772 77.2572 42.6702C78.2273 41.2552 79.0961 39.8003 79.8583 38.3189C81.9823 34.1883 83.2456 29.9354 83.64 25.7888C84.0238 21.7673 83.576 17.9586 82.3634 14.5461C81.2148 11.3145 79.4052 8.50851 77.0227 6.23709C74.8054 4.1226 72.127 2.50282 69.0675 1.4336C65.2885 0.114374 61.2935 -0.236712 57.3786 0.146291C53.8287 0.492057 50.3055 1.44158 46.9902 2.84327C43.9254 4.1359 40.9885 5.83547 38.2915 7.85422C35.7437 9.75859 33.3558 11.9875 31.2184 14.5036C31.2104 14.5115 31.2051 14.5195 31.1971 14.5302C31.1891 14.5381 31.1838 14.5461 31.1758 14.5568C31.1678 14.5647 31.1625 14.5727 31.1545 14.5834C31.1465 14.594 31.1411 14.5993 31.1332 14.6073L24.1347 22.8312L24.0281 22.9562L22.9861 24.1824L18.8126 29.0896Z" fill="white"/>
<path d="M9.13043 30.2944C9.08246 30.3902 9.02916 30.4806 8.97319 30.5631C8.91723 30.6455 8.8586 30.72 8.79997 30.7865C8.74133 30.8503 8.6827 30.9062 8.62407 30.9461C8.56544 30.9886 8.50948 31.0152 8.45617 31.0285C8.38422 31.0471 8.32559 31.0365 8.28028 31.0019C8.23497 30.9674 8.20299 30.9088 8.187 30.829C8.16835 30.7519 8.16568 30.6535 8.17901 30.5418C8.19233 30.4301 8.21898 30.3051 8.26163 30.1668C8.27229 30.1322 8.28561 30.0976 8.29627 30.063C8.3096 30.0285 8.32292 29.9939 8.33625 29.962C8.34957 29.9274 8.36556 29.8955 8.37889 29.8636C8.39488 29.8316 8.4082 29.7997 8.42686 29.7678C8.47483 29.6747 8.52547 29.5869 8.57877 29.5045C8.63207 29.422 8.6907 29.3502 8.74667 29.2837C8.8053 29.2199 8.86126 29.164 8.91989 29.1215C8.97852 29.0789 9.03449 29.047 9.08779 29.0337C9.15975 29.0124 9.21838 29.0204 9.26635 29.0523C9.31432 29.0843 9.3463 29.1401 9.36762 29.2172C9.38628 29.2944 9.39161 29.3901 9.38095 29.5018C9.37029 29.6135 9.34364 29.7412 9.301 29.8822C9.29034 29.9168 9.27701 29.9513 9.26635 29.9886C9.25303 30.0231 9.2397 30.0577 9.22637 30.0923C9.21305 30.1269 9.19706 30.1614 9.18107 30.1934C9.16241 30.2279 9.14642 30.2625 9.13043 30.2944ZM7.48876 29.5098C7.43546 29.6162 7.38216 29.7253 7.33152 29.8343C7.28089 29.9433 7.23291 30.0551 7.18494 30.1694C7.13697 30.2811 7.09433 30.3955 7.05169 30.5099C7.00905 30.6242 6.96908 30.7413 6.93176 30.8583C6.88912 30.9939 6.84915 31.1269 6.8145 31.2573C6.77986 31.3876 6.74788 31.5179 6.72122 31.6456C6.69457 31.7733 6.67325 31.8983 6.6546 32.0179C6.63594 32.1403 6.62262 32.2573 6.61462 32.3717C6.61196 32.385 6.60929 32.401 6.60663 32.4143C6.60396 32.4276 6.60396 32.4408 6.6013 32.4541C6.6013 32.4674 6.59863 32.4807 6.59863 32.4914C6.59863 32.5047 6.59863 32.5153 6.59863 32.526L6.60396 32.5738C6.60396 32.6297 6.60396 32.6855 6.60396 32.7387C6.60396 32.7919 6.60663 32.8451 6.61196 32.893C6.61462 32.9435 6.61995 32.9914 6.62795 33.0393C6.63328 33.0872 6.64127 33.1324 6.65193 33.1776L6.84915 35.7044C6.85181 35.7283 6.85448 35.7496 6.86247 35.7682C6.8678 35.7868 6.8758 35.8028 6.88646 35.8134C6.89712 35.8267 6.90778 35.8347 6.9211 35.84C6.93443 35.8453 6.95042 35.8453 6.96641 35.8427H6.96907C6.98507 35.84 7.00372 35.832 7.02238 35.8214C7.04103 35.8107 7.05969 35.7974 7.07834 35.7788C7.097 35.7602 7.11832 35.7416 7.13697 35.7176C7.15563 35.6937 7.17695 35.6671 7.1956 35.6379L9.25036 32.4861C9.28501 32.4408 9.31699 32.393 9.34897 32.3451C9.38095 32.2972 9.41293 32.2493 9.44757 32.1988C9.47955 32.1483 9.51154 32.1004 9.54352 32.0499C9.5755 31.9993 9.60481 31.9488 9.63679 31.8956L9.69542 31.8052C9.70075 31.7972 9.70608 31.7892 9.71141 31.7812C9.71674 31.7733 9.72207 31.7653 9.7274 31.7573C9.73273 31.7493 9.73806 31.7413 9.74073 31.7307C9.74606 31.7227 9.74872 31.7121 9.75405 31.7041C9.75672 31.6988 9.75938 31.6908 9.76471 31.6855C9.76738 31.6802 9.77004 31.6722 9.77271 31.6669C9.77537 31.6615 9.77804 31.6536 9.78071 31.6482C9.78337 31.6429 9.78604 31.6349 9.7887 31.6296C9.79936 31.6083 9.81269 31.5871 9.82335 31.5658C9.83401 31.5445 9.84733 31.5232 9.85799 31.502C9.86865 31.4807 9.88198 31.4594 9.89264 31.4381C9.9033 31.4168 9.91396 31.3956 9.92728 31.3716C9.98858 31.2519 10.0472 31.1323 10.1005 31.0099C10.1565 30.8876 10.2098 30.7652 10.2604 30.6429C10.3111 30.5205 10.359 30.3955 10.4017 30.2732C10.447 30.1508 10.4869 30.0258 10.5243 29.9035C10.6762 29.4087 10.7668 28.9539 10.7988 28.5576C10.8307 28.164 10.8068 27.8289 10.7321 27.5682C10.6575 27.3102 10.5322 27.1214 10.3644 27.023C10.1965 26.9245 9.98591 26.9086 9.7354 26.991C9.55151 27.0522 9.35696 27.1639 9.15975 27.3155C8.9652 27.4671 8.76798 27.656 8.57344 27.8767C8.37889 28.0975 8.18967 28.3502 8.00578 28.6241C7.82189 28.8981 7.64866 29.196 7.48876 29.5098Z" fill="white"/>
<path d="M44.5756 26.0069C44.4797 26.1931 44.3624 26.3687 44.2292 26.5309C44.0959 26.6932 43.9467 26.8394 43.7868 26.9644C43.6269 27.0895 43.4563 27.1958 43.2804 27.2756C43.1045 27.3554 42.926 27.4086 42.7474 27.4299C42.5209 27.4592 42.3157 27.4352 42.1398 27.3687C41.9639 27.3022 41.82 27.1932 41.708 27.0496C41.5988 26.9059 41.5215 26.7304 41.4868 26.5309C41.4522 26.3314 41.4575 26.1054 41.5082 25.8607C41.5188 25.8075 41.5321 25.7543 41.5481 25.7037C41.5641 25.6505 41.5801 25.6 41.5988 25.5468C41.6174 25.4963 41.6387 25.4431 41.6601 25.3925C41.6814 25.342 41.7054 25.2915 41.732 25.2436C41.8226 25.0654 41.9346 24.8978 42.0598 24.7409C42.1851 24.584 42.3263 24.443 42.4809 24.318C42.6328 24.193 42.7954 24.0866 42.9659 24.0042C43.1365 23.9217 43.3124 23.8605 43.4883 23.8313C43.7148 23.7914 43.9227 23.8047 44.1039 23.8605C44.2851 23.9164 44.4397 24.0175 44.5623 24.1558C44.6822 24.2941 44.7702 24.4696 44.8128 24.6744C44.8555 24.8792 44.8581 25.1133 44.8075 25.3659C44.7968 25.4218 44.7835 25.475 44.7675 25.5282C44.7515 25.5814 44.7355 25.6372 44.7169 25.6904C44.6982 25.7436 44.6769 25.7968 44.6529 25.85C44.6263 25.9032 44.6023 25.9537 44.5756 26.0069ZM38.4167 25.0122C38.3341 25.1744 38.2568 25.3367 38.1848 25.5042C38.1129 25.6692 38.0436 25.8367 37.9823 26.0069C37.921 26.1772 37.8624 26.3474 37.8117 26.5203C37.7611 26.6932 37.7158 26.866 37.6758 27.0416C37.6225 27.2783 37.5825 27.5124 37.5532 27.7437C37.5239 27.9751 37.5079 28.2039 37.5026 28.4273C37.4972 28.6507 37.5052 28.8715 37.5266 29.0869C37.5479 29.3024 37.5799 29.5125 37.6252 29.7173C37.6252 29.7439 37.6252 29.7678 37.6252 29.7944C37.6278 29.8183 37.6305 29.8423 37.6358 29.8662C37.6412 29.8902 37.6465 29.9114 37.6545 29.9354C37.6625 29.9567 37.6705 29.9779 37.6811 29.9992L37.7238 30.087C37.7558 30.1881 37.7904 30.2865 37.8277 30.3849C37.865 30.4806 37.9077 30.5764 37.9503 30.6695C37.9956 30.7626 38.0436 30.8503 38.0942 30.9381C38.1449 31.0259 38.2008 31.111 38.2568 31.1934L40.5674 35.9889C40.5914 36.0368 40.6207 36.082 40.6527 36.1193C40.6873 36.1565 40.7246 36.1884 40.7646 36.215C40.8072 36.2416 40.8525 36.2602 40.9005 36.2735C40.9485 36.2868 41.0018 36.2922 41.0551 36.2922H41.0631C41.1191 36.2895 41.175 36.2815 41.231 36.2656C41.287 36.2496 41.3429 36.2283 41.3962 36.1991C41.4495 36.1698 41.5028 36.1352 41.5535 36.0953C41.6041 36.0554 41.6521 36.0076 41.6947 35.957L46.5611 30.2412C46.6437 30.1561 46.7237 30.071 46.8036 29.9833C46.8836 29.8955 46.9635 29.805 47.0381 29.7146C47.1154 29.6242 47.19 29.5311 47.2647 29.438C47.3393 29.3449 47.4112 29.2492 47.4832 29.1534L47.6271 28.9805C47.6431 28.9619 47.6591 28.9433 47.6724 28.9247C47.6857 28.9061 47.7017 28.8874 47.7151 28.8662C47.7284 28.8449 47.7417 28.8263 47.7524 28.8076C47.763 28.7864 47.7764 28.7677 47.787 28.7465C47.7923 28.7385 47.795 28.7305 47.7977 28.7225C47.8003 28.7146 47.8057 28.7066 47.8083 28.6986C47.811 28.6906 47.8163 28.6826 47.819 28.6747C47.8217 28.6667 47.827 28.6587 47.8297 28.6507C47.875 28.5816 47.9203 28.5098 47.9629 28.4406C48.0056 28.3688 48.0482 28.2996 48.0908 28.2278C48.1335 28.156 48.1734 28.0842 48.2108 28.0124C48.2507 27.9406 48.288 27.8688 48.3254 27.7943C48.424 27.6001 48.5172 27.4033 48.5999 27.2065C48.6851 27.0097 48.7598 26.8102 48.8291 26.6107C48.8983 26.4112 48.957 26.2117 49.0103 26.0123C49.0636 25.8128 49.1062 25.6133 49.1409 25.4165C49.3061 24.4909 49.2768 23.6478 49.0876 22.9163C48.8983 22.1955 48.5546 21.5891 48.0882 21.121C47.6298 20.6635 47.0541 20.3444 46.3905 20.1821C45.7429 20.0252 45.01 20.0225 44.2238 20.1927C43.6189 20.3257 43.0246 20.5518 42.4542 20.8524C41.8919 21.1503 41.3536 21.52 40.8525 21.9455C40.3542 22.3684 39.8931 22.8472 39.4827 23.3658C39.075 23.8712 38.7152 24.4297 38.4167 25.0122Z" fill="white"/>
</g>
<defs>
<clipPath id="clip0_109_3376">
<rect width="176" height="61" fill="white"/>
</clipPath>
</defs>
</svg>
