<svg width="48" height="49" viewBox="0 0 48 49" fill="none" xmlns="http://www.w3.org/2000/svg">
<path d="M47.5 24.4989C47.5 37.5132 36.9775 48.0612 24 48.0612C11.0225 48.0612 0.5 37.5132 0.5 24.4989C0.5 11.4845 11.0225 0.936523 24 0.936523C36.9775 0.936523 47.5 11.4845 47.5 24.4989Z" stroke="white"/>
<path d="M32 18.3395C32 18.3395 31.44 20.0681 30.4 21.1381C31.68 29.3695 22.88 35.3785 16 30.6866C17.76 30.7689 19.52 30.1927 20.8 29.0403C16.8 27.8056 14.8 22.949 16.8 19.1626C18.56 21.3028 21.28 22.5375 24 22.4552C23.28 18.998 27.2 17.0224 29.6 19.3272C30.48 19.3272 32 18.3395 32 18.3395Z" fill="white"/>
</svg>
